<?xml version="1.0" standalone="no"?>
<!DOCTYPE svg PUBLIC "-//W3C//DTD SVG 20010904//EN"
 "http://www.w3.org/TR/2001/REC-SVG-20010904/DTD/svg10.dtd">
<svg version="1.0" xmlns="http://www.w3.org/2000/svg"
 width="500.000000pt" height="500.000000pt" viewBox="0 0 500.000000 500.000000"
 preserveAspectRatio="xMidYMid meet">

<g transform="translate(0.000000,500.000000) scale(0.100000,-0.100000)"
fill="#000000" stroke="none">
<path d="M1106 4411 c-3 -4 -22 -11 -43 -13 -36 -5 -152 -54 -163 -69 -3 -3
-19 -13 -36 -22 -61 -32 -244 -264 -244 -310 0 -7 -5 -18 -11 -24 -5 -5 -12
-25 -14 -44 -3 -19 -11 -39 -20 -45 -13 -10 -15 -168 -15 -1377 0 -1271 1
-1367 17 -1375 9 -6 18 -23 19 -39 1 -16 6 -38 12 -49 6 -10 22 -44 37 -75 15
-31 37 -67 49 -80 12 -13 37 -48 56 -76 18 -29 37 -53 42 -53 4 0 29 -15 55
-33 65 -44 85 -56 103 -63 8 -3 28 -12 43 -20 16 -7 37 -14 47 -14 10 0 22 -5
25 -10 3 -6 25 -10 48 -10 23 0 55 -7 71 -15 25 -13 192 -15 1306 -15 1113 0
1282 2 1313 15 20 8 54 15 76 15 22 0 43 5 46 10 3 6 14 10 24 10 16 0 58 20
159 76 67 38 203 193 237 272 10 23 22 42 27 42 4 0 8 13 8 28 0 15 4 32 9 38
5 5 12 29 16 54 13 78 17 2627 5 2695 -24 130 -56 211 -114 287 -17 23 -38 53
-47 67 -42 70 -234 191 -326 206 -24 4 -45 11 -49 16 -7 12 -2761 12 -2768 0z
m2456 -635 c4 -6 8 -193 8 -416 0 -303 -3 -409 -12 -418 -9 -9 -68 -12 -205
-12 -189 0 -192 0 -204 23 -7 12 -18 95 -24 185 -7 90 -16 167 -22 173 -6 6
-176 8 -439 7 l-429 -3 -3 -312 -4 -313 374 -2 373 -3 3 -187 c1 -104 -1 -188
-5 -188 -5 0 -171 0 -370 -1 -276 0 -363 -3 -364 -12 -5 -73 -7 -570 -3 -581
5 -13 26 -16 114 -16 71 0 111 -4 116 -12 8 -13 7 -435 -1 -448 -7 -11 -1012
-14 -1039 -4 -14 5 -16 35 -16 225 0 206 1 219 19 229 11 5 67 10 125 10 l106
0 -2 808 -3 807 -120 5 -120 5 -3 221 c-2 177 0 223 11 233 10 8 297 12 1053
13 571 2 1048 1 1059 -1 11 -2 23 -9 27 -15z"/>
</g>
</svg>
